<svg xmlns="http://www.w3.org/2000/svg" viewBox="0 0 512 512">
  <defs>
    <!-- Background & rim -->
    <radialGradient id="bgRad" cx="50%" cy="35%" r="78%">
      <stop offset="0%" stop-color="#ff7aff"></stop>
      <stop offset="42%" stop-color="#a942ff"></stop>
      <stop offset="80%" stop-color="#5c28cf"></stop>
      <stop offset="100%" stop-color="#3a1b99"></stop>
    </radialGradient>
    <linearGradient id="rim" x1="0" y1="0" x2="0" y2="1">
      <stop offset="0%" stop-color="#ffffff" stop-opacity="0.95"></stop>
      <stop offset="100%" stop-color="#ffffff" stop-opacity="0.6"></stop>
    </linearGradient>

    <!-- Soft glow -->
    <filter id="softGlow" x="-70%" y="-70%" width="240%" height="240%">
      <feGaussianBlur stdDeviation="10" result="b"></feGaussianBlur>
      <feMerge><feMergeNode in="b"></feMergeNode><feMergeNode in="SourceGraphic"></feMergeNode></feMerge>
    </filter>

    <!-- Diamond gradients -->
    <linearGradient id="diaCrown" x1="0" y1="0" x2="0" y2="1">
      <stop offset="0%" stop-color="#8ff0ff"></stop>
      <stop offset="55%" stop-color="#27bcff"></stop>
      <stop offset="100%" stop-color="#0e71e8"></stop>
    </linearGradient>
    <linearGradient id="diaL" x1="0" y1="0" x2="1" y2="1">
      <stop offset="0%" stop-color="#68d9ff"></stop>
      <stop offset="100%" stop-color="#0a64cc"></stop>
    </linearGradient>
    <linearGradient id="diaR" x1="1" y1="0" x2="0" y2="1">
      <stop offset="0%" stop-color="#baf6ff"></stop>
      <stop offset="100%" stop-color="#0f6fe9"></stop>
    </linearGradient>
    <linearGradient id="diaCore" x1="0" y1="0" x2="0" y2="1">
      <stop offset="0%" stop-color="#0d439f"></stop>
      <stop offset="100%" stop-color="#072a72"></stop>
    </linearGradient>
    <linearGradient id="diaEdgeHi" x1="0" y1="0" x2="1" y2="0">
      <stop offset="0%" stop-color="#e6fbff"></stop>
      <stop offset="100%" stop-color="#9fe7ff"></stop>
    </linearGradient>
    <radialGradient id="halo" cx="50%" cy="45%" r="48%">
      <stop offset="0%" stop-color="#fff" stop-opacity="0.35"></stop>
      <stop offset="100%" stop-color="#fff" stop-opacity="0"></stop>
    </radialGradient>
    <linearGradient id="streak" x1="0" y1="0" x2="0" y2="1">
      <stop offset="0%" stop-color="#ffffff" stop-opacity="0.9"></stop>
      <stop offset="65%" stop-color="#ffffff" stop-opacity="0.2"></stop>
      <stop offset="100%" stop-color="#ffffff" stop-opacity="0"></stop>
    </linearGradient>

    <!-- Surrounding gem fills -->
    <linearGradient id="greenGem" x1="0" y1="0" x2="1" y2="1">
      <stop offset="0%" stop-color="#b9ffb1"></stop>
      <stop offset="55%" stop-color="#2bc963"></stop>
      <stop offset="100%" stop-color="#118a46"></stop>
    </linearGradient>
    <radialGradient id="redGem" cx="35%" cy="30%" r="70%">
      <stop offset="0%" stop-color="#ffd0d0"></stop>
      <stop offset="55%" stop-color="#ff4a4a"></stop>
      <stop offset="100%" stop-color="#b31313"></stop>
    </radialGradient>
    <linearGradient id="blueGem" x1="0" y1="0" x2="1" y2="1">
      <stop offset="0%" stop-color="#a9d9ff"></stop>
      <stop offset="55%" stop-color="#3aa0ff"></stop>
      <stop offset="100%" stop-color="#0c58c7"></stop>
    </linearGradient>
    <linearGradient id="yellowGem" x1="0" y1="0" x2="1" y2="1">
      <stop offset="0%" stop-color="#fff58b"></stop>
      <stop offset="55%" stop-color="#f6c21a"></stop>
      <stop offset="100%" stop-color="#b78607"></stop>
    </linearGradient>
    <linearGradient id="orangeGem" x1="0" y1="0" x2="1" y2="1">
      <stop offset="0%" stop-color="#ffd08a"></stop>
      <stop offset="55%" stop-color="#ff8f29"></stop>
      <stop offset="100%" stop-color="#cf5c00"></stop>
    </linearGradient>
  </defs>

  <!-- Rounded icon background -->
  <rect x="20" y="20" width="472" height="472" rx="96" ry="96" fill="url(#rim)" opacity="0.55"></rect>
  <rect x="28" y="28" width="456" height="456" rx="88" ry="88" fill="url(#bgRad)"></rect>

  <!-- Light streaks behind diamond -->
  <g filter="url(#softGlow)" opacity="0.9">
    <rect x="206" y="230" width="12" height="170" fill="url(#streak)"></rect>
    <rect x="242" y="222" width="16" height="186" fill="url(#streak)"></rect>
    <rect x="282" y="234" width="12" height="168" fill="url(#streak)"></rect>
  </g>

  <!-- CENTRAL BLUE DIAMOND (more detail) -->
  <g transform="translate(0,-6)">
    <!-- halo -->
    <circle cx="256" cy="214" r="132" fill="url(#halo)" filter="url(#softGlow)"></circle>
    <!-- crown band -->
    <polygon points="154,136 358,136 404,188 108,188" fill="url(#diaCrown)" stroke="#0b42a6" stroke-opacity="0.35"></polygon>
    <!-- crown facets -->
    <polygon points="154,136 108,188 186,192 226,136" fill="url(#diaL)"></polygon>
    <polygon points="358,136 404,188 326,192 286,136" fill="url(#diaR)"></polygon>
    <!-- table -->
    <polygon points="226,136 286,136 326,192 186,192" fill="#2cc0ff"></polygon>
    <!-- table accents -->
    <polyline points="196,182 256,150 316,182" stroke="url(#diaEdgeHi)" stroke-width="3" opacity="0.6" fill="none"></polyline>
    <polyline points="212,162 256,176 300,162" stroke="#a6eaff" stroke-width="2" opacity="0.5" fill="none"></polyline>
    <polyline points="206,172 256,158 306,172" stroke="#d9f7ff" stroke-width="1.5" opacity="0.5" fill="none"></polyline>

    <!-- girdle & pavilion -->
    <polygon points="108,188 256,404 404,188" fill="url(#diaR)"></polygon>
    <!-- left pavilion layers -->
    <polygon points="108,188 186,192 256,404" fill="url(#diaL)"></polygon>
    <polygon points="186,192 224,220 256,404" fill="#0b65cf"></polygon>
    <polygon points="224,220 242,248 256,404" fill="#0a57b4"></polygon>
    <!-- core -->
    <polygon points="242,248 270,248 256,404" fill="url(#diaCore)"></polygon>
    <!-- right pavilion layers -->
    <polygon points="270,248 288,220 256,404" fill="#0d72e6"></polygon>
    <polygon points="288,220 326,192 256,404" fill="#0e69dc"></polygon>
    <polygon points="326,192 404,188 256,404" fill="url(#diaR)"></polygon>

    <!-- crisp top edge highlight -->
    <polyline points="160,140 212,140 226,136 286,136 300,140 352,140" fill="none" stroke="url(#diaEdgeHi)" stroke-width="4" opacity="0.95"></polyline>
    <!-- bezel slashes -->
    <path d="M134 176 L158 170 M354 170 L378 176" stroke="#c9f6ff" stroke-width="3" opacity="0.6"></path>
  </g>

  <!-- SURROUNDING GEMS (larger, one each, no overlap with diamond) -->

  <!-- Green hexagon (top-left, larger, above crown line) -->
  <g transform="translate(40,44)" filter="url(#softGlow)">
    <!-- width ~120, height ~88 -->
    <polygon points="0,44 28,0 92,0 120,44 92,88 28,88" fill="url(#greenGem)" stroke="#106d39" stroke-width="3"></polygon>
    <polygon points="28,0 60,44 28,88" fill="#6fe07f" opacity="0.55"></polygon>
    <polygon points="92,0 60,44 92,88" fill="#1ab755" opacity="0.45"></polygon>
  </g>

  <!-- Red circle (top-right, larger, well above diamond) -->
  <g filter="url(#softGlow)">
    <circle cx="430" cy="86" r="34" fill="url(#redGem)" stroke="#7e0f0f" stroke-width="3"></circle>
  </g>

  <!-- Blue pentagon (left-mid, larger, kept left of diamond) -->
  <g transform="translate(12,250)" filter="url(#softGlow)">
    <!-- width ~92 so right edge x=104 (< diamond min x=108) -->
    <polygon points="46,0 92,28 74,92 18,92 0,28" fill="url(#blueGem)" stroke="#0c56b8" stroke-width="3"></polygon>
    <polygon points="46,0 74,92 46,68 18,92" fill="#5ab5ff" opacity="0.45"></polygon>
  </g>

  <!-- Yellow star (right-bottom, larger, shifted right to avoid diamond) -->
  <g transform="translate(396,330) scale(1.4)" filter="url(#softGlow)">
    <path d="M48,0 L58,30 L90,32 L64,50 L72,80 L48,62 L24,80 L32,50 L6,32 L38,30 Z" fill="url(#yellowGem)" stroke="#a67600" stroke-width="2.2"></path>
    <path d="M48,10 L55,32 L77,34 L59,46 L65,67 L48,54 L31,67 L37,46 L19,34 L41,32 Z" fill="#ffe788" opacity="0.55"></path>
  </g>

  <!-- Orange diamond (bottom-left, larger, low enough to clear the diamond) -->
  <g filter="url(#softGlow)">
    <!-- side=72, centered near (80,460); top ~409 (> diamond bottom 404) -->
    <rect x="44" y="424" width="72" height="72" transform="rotate(45 80 460)" fill="url(#orangeGem)" stroke="#a84700" stroke-width="3"></rect>
  </g>
</svg>
