<?xml version="1.0" encoding="UTF-8"?>
<svg fill="#008080" xmlns="http://www.w3.org/2000/svg"  viewBox="0 0 50 50" width="300px" height="300px">
  <path d="M 23 4 C 19.847222 4 16.638626 4.7132153 14 5.5820312 C 11.361374 6.4508472 9.3780426 7.3835322 8.359375 8.2324219 A 1.0001 1.0001 0 0 0 9.1796875 9.984375 C 9.6887791 9.891813 11.116765 9.8126232 12.796875 9.8203125 C 13.03855 9.8214187 13.319173 9.8358518 13.572266 9.8398438 C 8.9763376 13.306587 6 18.809293 6 25 C 6 26.082728 6.1062412 27.14673 6.2890625 28.1875 C 5.4854551 29.722799 5 31.325594 5 33 C 5 35.8 6.3394989 38.037143 8.4277344 39.583984 C 8.606726 39.716571 8.8596095 39.788014 9.0488281 39.912109 A 1.0001 1.0001 0 0 0 9.921875 40.373047 C 11.800789 41.417191 13.97029 42.221389 16.490234 42.730469 C 17.229211 42.879757 18.123369 42.873983 18.900391 42.990234 A 1.0001 1.0001 0 0 0 19.689453 43.222656 C 19.715219 43.228379 19.718178 43.22813 19.746094 43.234375 C 19.767684 43.240975 19.791277 43.265671 19.810547 43.269531 C 19.919966 43.291411 19.933895 43.284353 19.962891 43.283203 C 19.964291 43.283512 19.980439 43.287109 19.980469 43.287109 C 19.98048 43.287109 19.987981 43.285256 19.988281 43.285156 C 19.993581 43.284749 20.027417 43.289063 20.029297 43.289062 L 20.029297 43.275391 C 20.106327 43.258261 20.407615 43.191676 20.408203 43.191406 C 20.408366 43.19133 20.441744 43.169124 20.457031 43.160156 C 22.663384 43.432522 24.955635 43.606788 27.259766 43.734375 L 27.259766 43.859375 L 27.289062 43.859375 L 27.289062 43.736328 C 30.748261 43.927095 34.230514 44 37.5 44 A 1.0001 1.0001 0 0 0 37.615234 43.994141 C 42.244472 43.931463 46 40.143687 46 35.5 C 46 33.136889 45.025948 30.996109 43.460938 29.453125 C 43.805322 28.02697 44 26.535721 44 25 C 44 16.932399 38.959005 10.037539 31.853516 7.2851562 C 31.443924 6.7076535 30.933547 6.1938159 30.316406 5.7695312 C 28.571598 4.5699756 26.125 4 23 4 z M 23 6 C 25.875 6 27.928402 6.5550244 29.183594 7.4179688 C 30.052162 8.0151092 30.482478 8.8073358 30.730469 9.7246094 C 28.778159 9.1316526 26.89121 9.2850188 25.382812 9.6152344 C 25.342806 9.5847798 25.31546 9.5195107 25.275391 9.4921875 C 24.788514 9.16019 24.23254 8.9790207 23.558594 8.8046875 C 22.618536 8.561518 21.420323 8.3921177 20.152344 8.2480469 C 20.20694 8.0442711 20.260383 7.8358833 20.355469 7.6171875 C 20.613876 7.0228519 21.018034 6.4398005 21.554688 6.0820312 A 1.0001 1.0001 0 0 0 21.591797 6.0546875 C 22.063783 6.0215986 22.535106 6 23 6 z M 18.714844 6.4277344 C 18.647502 6.5589869 18.575638 6.6912672 18.519531 6.8203125 C 18.328708 7.2592066 18.19884 7.667702 18.115234 8.0449219 C 16.650442 7.9360864 15.180253 7.8882808 13.791016 7.8632812 C 14.175797 7.7166529 14.208955 7.6174591 14.625 7.4804688 C 15.878872 7.0676084 17.274753 6.6960387 18.714844 6.4277344 z M 28.226562 11.300781 C 29.086941 11.338891 29.948175 11.638523 30.78125 11.982422 C 30.473223 13.561907 29.412842 15.349 28.015625 17.21875 C 26.673994 15.47692 25.211869 14.557564 23.855469 13.949219 C 24.692694 13.148964 25.382653 12.361639 25.808594 11.558594 C 26.534284 11.404848 27.325935 11.260892 28.226562 11.300781 z M 22.261719 15.365234 C 23.518437 15.794187 25.285413 16.761207 26.707031 18.798828 C 25.963682 19.682984 25.361879 20.569393 24.53125 21.429688 C 23.824013 22.162181 23.172765 22.790867 22.464844 23.490234 C 20.800288 21.486187 18.724881 20.506537 16.75 19.902344 C 18.471395 18.490026 20.236524 17.082239 21.716797 15.849609 C 21.922609 15.678229 22.065162 15.531443 22.261719 15.365234 z M 15 21.390625 C 17.028554 21.847721 19.403877 22.812476 21.056641 24.894531 C 20.537126 25.405723 19.950759 25.989615 19.476562 26.46875 C 18.135631 27.82365 17.171564 28.959102 16.498047 30.078125 C 15.473629 30.209431 13.738454 30.474098 12.091797 31.662109 C 10.620695 32.723463 9.4145269 34.584737 9.0449219 37.349609 C 7.7900252 36.200145 7 34.876415 7 33 C 7 29.220396 10.728907 25.082255 15 21.390625 z M 37.5 29 C 39.35875 29 41.026599 29.77543 42.208984 31.017578 A 2.5 2.5 0 0 0 42.5 36 A 2.5 2.5 0 0 0 44 35.496094 C 44.000001 35.497411 44 35.498683 44 35.5 C 44 39.101696 41.101699 42 37.5 42 C 33.898301 42 31 39.101696 31 35.5 C 31 31.898304 33.898301 29 37.5 29 z M 31.263672 29.746094 C 29.86356 31.2623 29 33.281216 29 35.5 C 29 38.064 30.148695 40.363296 31.953125 41.923828 C 28.042363 41.82533 24.070137 41.609589 20.408203 41.146484 C 19.461909 36.368075 20.81837 33.225383 22.136719 31.431641 C 22.857924 31.295791 23.448828 31.202145 24.273438 31.039062 C 26.343539 30.629661 28.735331 30.164312 31.263672 29.746094 z M 19.513672 31.876953 C 18.424863 33.99928 17.758342 37.069916 18.378906 40.929688 C 17.911478 40.851928 17.333308 40.860148 16.884766 40.769531 C 14.531483 40.294121 12.602923 39.568246 10.996094 38.697266 C 11.092914 35.763284 12.048321 34.158632 13.261719 33.283203 C 14.581114 32.331301 16.190377 32.106901 17.123047 31.992188 A 1.0001 1.0001 0 0 0 17.316406 31.951172 C 17.316406 31.951172 17.318359 31.951172 17.318359 31.951172 C 17.962554 32.021172 18.639936 32.005053 19.513672 31.876953 z M 36.5 34 A 2.5 2.5 0 0 0 36.5 39 A 2.5 2.5 0 0 0 36.5 34 z M 41.693359 37.001953 C 41.628703 36.995484 41.560141 37.000984 41.494141 37.021484 L 40.0625 37.466797 C 39.7985 37.548797 39.650422 37.827797 39.732422 38.091797 L 39.806641 38.330078 C 40.010641 38.989078 40.710141 39.358297 41.369141 39.154297 C 42.028141 38.950297 42.398313 38.250797 42.195312 37.591797 L 42.121094 37.351562 C 42.059594 37.153563 41.887328 37.021359 41.693359 37.001953 z"/>
</svg>